<?xml version="1.0" encoding="iso-8859-1"?>
<!-- Uploaded to: SVG Repo, www.svgrepo.com, Generator: SVG Repo Mixer Tools -->
<svg fill="#000000" height="800px" width="800px" version="1.1" id="Capa_1" xmlns="http://www.w3.org/2000/svg" xmlns:xlink="http://www.w3.org/1999/xlink" 
	 viewBox="0 0 360 360" xml:space="preserve">
<g id="XMLID_484_">
	<path id="XMLID_486_" d="M285,96.429v41.167c0,55.712-45.325,101.038-101.038,101.038h-7.924
		C120.325,238.633,75,193.308,75,137.596V96.429H45v41.167c0,68.536,52.892,124.944,120,130.568v40.097h-47.392V360h124.783v-51.739
		H195v-40.097c67.108-5.625,120-62.032,120-130.568V96.429H285z"/>
	<path id="XMLID_487_" d="M176.647,193.872h6.705c35.568,0,64.505-28.937,64.505-64.505V64.505C247.857,28.937,218.921,0,183.353,0
		h-6.705c-35.568,0-64.505,28.937-64.505,64.505v64.862C112.143,164.935,141.079,193.872,176.647,193.872z"/>
</g>
</svg>